# xmcd CD database file
#
# Track frame offsets:
#	150
#	17423
#	28985
#	45280
#	57758
#	68125
#	83225
#	95080
#	107903
#	121500
#
# Disc length: 1789 seconds
#
# Revision: 0
# Processed by: cddbd v1.5.1PL0 Copyright (c) Steve Scherf et al.
# Submitted via: cdripper 1,0,14,817
#
DISCID=7606fb0a
DTITLE=ray price - Priceless
DYEAR=1995
DGENRE=Country
TTITLE0=For The Good Times
TTITLE1=Crazy Arms
TTITLE2=Release Me
TTITLE3=Welcome To My World
TTITLE4=Together Again
TTITLE5=San Antonio Rose
TTITLE6=Don't You Believe Her
TTITLE7=Crazy
TTITLE8=Loving Her Was Easier (Than Anything I'll Ever Do Again)
TTITLE9=Drinking Champagne
EXTD=YEAR: 1995
EXTT0=
EXTT1=
EXTT2=
EXTT3=
EXTT4=
EXTT5=
EXTT6=
EXTT7=
EXTT8=
EXTT9=
PLAYORDER=
